<?xml version="1.0" encoding="iso-8859-1"?>
<!-- Generator: Adobe Illustrator 21.1.0, SVG Export Plug-In . SVG Version: 6.00 Build 0)  -->
<svg version="1.2" baseProfile="tiny" id="Layer_1" xmlns="http://www.w3.org/2000/svg" xmlns:xlink="http://www.w3.org/1999/xlink"
	 x="0px" y="0px" viewBox="0 0 278 84" xml:space="preserve">
<g>
	<path fill="#909498" d="M1.57,1.43v81.58h56.18V1.43H1.57z M49.62,74.8H9.66V9.65h39.96V74.8z"/>
	<path fill="#909498" d="M91.23,29.87h-0.08c-4.48-7.3-9.01-13.75-13.57-20.24H74.1v28.4h3.84V17.66h0.04
		c4.53,7.34,9.05,13.83,13.61,20.37h3.48V9.63h-3.85V29.87z M118.98,38.03l-8.93-28.4h-4l-9.69,28.4h4.16l2.44-7.75h8.44l2.2,7.75
		H118.98z M104.2,26.79c1.12-3.73,2.24-7.17,3.24-11.56h0.08c1.12,4.39,2.12,7.83,3.16,11.56H104.2z M123.5,38.03h4.8V13.45h7.37
		V9.63h-19.54v3.81h7.37L123.5,38.03L123.5,38.03z M141.99,9.63h-4.76v28.4h4.76V9.63z M156.81,38.51c7.33,0,11.89-6.61,11.89-15.09
		c0-7.95-5.05-14.28-11.89-14.28c-6.85,0-11.89,6.33-11.89,14.28C144.92,31.9,149.48,38.51,156.81,38.51z M156.81,13.2
		c4.76,0,6.76,4.99,6.76,10.22c0,5.43-1.76,11.03-6.76,11.03c-5,0-6.77-5.6-6.77-11.03C150.04,18.19,152.04,13.2,156.81,13.2z
		 M175.46,17.66h0.04c4.52,7.34,9.04,13.83,13.61,20.37h3.48V9.63h-3.84v20.24h-0.08c-4.48-7.3-9.01-13.75-13.57-20.24h-3.48v28.4
		h3.84C175.46,38.03,175.46,17.66,175.46,17.66z M200.48,30.28h8.45l2.2,7.75h5.36l-8.93-28.4h-4l-9.69,28.4h4.17L200.48,30.28z
		 M204.97,15.23h0.08c1.12,4.39,2.12,7.83,3.16,11.56h-6.49C202.85,23.06,203.96,19.61,204.97,15.23z M232.15,34.21h-9.49V9.63
		h-4.77v28.4h14.25L232.15,34.21L232.15,34.21z M87.32,70.5c-1,0.53-2.08,0.69-3.36,0.69c-4.12,0-8.13-3.98-8.13-10.71
		c0-6.45,3.48-10.55,8.61-10.55c1.84,0,3.84,0.69,5.12,1.5l1.56-3.36c-1.6-1.22-4.2-2.19-6.81-2.19c-8.41,0-13.61,6.78-13.61,14.52
		c0,8.36,5.21,14.85,13.45,14.85c2.72,0,5.41-0.73,7.97-1.75V61.78h-4.81C87.32,61.78,87.32,70.5,87.32,70.5z M101.29,61.78h7.85
		v-3.81h-7.85v-7.79h8.01v-3.81H96.48v28.4h14.25v-3.82h-9.45V61.78z M124.11,45.88c-6.85,0-11.89,6.33-11.89,14.28
		c0,8.48,4.56,15.09,11.89,15.09c7.33,0,11.89-6.61,11.89-15.09C136,52.21,130.95,45.88,124.11,45.88z M124.11,71.2
		c-5.01,0-6.77-5.6-6.77-11.03c0-5.23,2-10.22,6.77-10.22c4.76,0,6.76,4.99,6.76,10.22C130.87,65.6,129.11,71.2,124.11,71.2z
		 M154.25,70.5c-1,0.53-2.08,0.69-3.36,0.69c-4.12,0-8.13-3.98-8.13-10.71c0-6.45,3.48-10.55,8.61-10.55c1.84,0,3.84,0.69,5.12,1.5
		l1.56-3.36c-1.6-1.22-4.2-2.19-6.81-2.19c-8.4,0-13.61,6.78-13.61,14.52c0,8.36,5.2,14.85,13.45,14.85c2.72,0,5.4-0.73,7.97-1.75
		V61.78h-4.8C154.25,61.78,154.25,70.5,154.25,70.5z M179.63,54.57c0-5.52-3.32-8.2-8.69-8.2h-7.49v28.4h4.8V64.06h2.16l4.52,10.71
		h5.48L174.79,63C177.87,61.34,179.63,57.97,179.63,54.57z M170.26,60.4c-0.48,0.04-1.61,0.08-2,0.12V50.18h2.13
		c2.84,0,4.44,1.66,4.44,4.58C174.82,58.58,172.55,60.28,170.26,60.4z M190.2,46.37l-9.69,28.4h4.16l2.44-7.75h8.45l2.21,7.75h5.36
		l-8.93-28.4H190.2z M188.36,63.53c1.12-3.74,2.24-7.18,3.24-11.56h0.08c1.12,4.38,2.12,7.83,3.16,11.56H188.36z M238.28,57.28
		h-9.97V46.37h-4.76v28.4h4.76V61.09h9.97v13.67h4.8V46.45h-4.8V57.28z M247.68,74.76h4.76V46.37h-4.76V74.76z M269.26,71.2
		c-4.64,0-8.57-3.98-8.57-10.71c0-6.45,3.57-10.55,8.45-10.55c1.84,0,3.76,0.85,4.93,1.58l1.52-3.44c-1.64-1.14-3.96-2.19-6.44-2.19
		c-8.37,0-13.53,6.78-13.53,14.52c0,8.36,5.21,14.85,13.45,14.85c2.32,0,4.88-0.93,6.32-1.95l-1.32-3.53
		C272.83,70.59,271.1,71.2,269.26,71.2z M212.14,46.37h-7.48v28.4h4.8V64.06h2.16c5.73,0,9.21-4.71,9.21-9.49
		C220.82,49.05,217.5,46.37,212.14,46.37z M211.46,60.4c-0.48,0.04-1.64,0.08-2,0.11V50.18h2.16c2.8,0,4.41,1.66,4.41,4.58
		C216.02,58.58,213.74,60.28,211.46,60.4z"/>
</g>
</svg>
