<?xml version="1.0" encoding="iso-8859-1"?>
<!-- Generator: Adobe Illustrator 21.1.0, SVG Export Plug-In . SVG Version: 6.00 Build 0)  -->
<svg version="1.2" baseProfile="tiny" id="Layer_1" xmlns="http://www.w3.org/2000/svg" xmlns:xlink="http://www.w3.org/1999/xlink"
	 x="0px" y="0px" viewBox="0 0 229.67 73.33" xml:space="preserve">
<g>
	<path fill="#909498" d="M226.42,49.98c-0.26-0.98-0.49-1.84-1.58-2.67c-0.75-0.56-1.84-0.9-2.78-0.9c-1.58,0-2.67,1.05-2.67,2.22
		c0,0.56,0.26,1.16,0.71,1.54c0.34,0.3,1.58,0.75,2.63,1.01l1.13,0.3c1.8,0.53,4.7,1.35,4.7,4.81c0,2.48-1.69,5.68-5.79,5.68
		c-1.73,0-3.08-0.75-3.31-0.9c-0.6-0.34-0.94-0.56-1.2-0.56c-0.68,0-0.64,0.75-0.6,1.02h-1.09V55.8h1.09
		c0.23,1.2,0.45,2.59,1.73,3.76c0.94,0.9,2.25,1.39,3.5,1.39c1.95,0,3.19-1.2,3.19-2.41c0-1.99-2.71-2.33-4.25-2.78
		c-2.41-0.79-5.07-1.65-5.07-5.34c0-2.48,1.5-5.07,5.04-5.07c1.32,0,2.33,0.38,2.97,0.71c0.38,0.23,0.56,0.3,0.86,0.3
		c0.68,0,0.71-0.38,0.79-1.2h1.05v4.81H226.42z"/>
	<path fill="#909498" d="M204.62,49.52c0.15-1.5,0.38-3.31,3.01-3.31c2.44,0,2.56,1.84,2.67,3.16v2.18h-5.71L204.62,49.52z
		 M208.42,60.8c-3.76,0-3.87-3.76-3.91-5.19c-0.04-1.01,0-1.99,0-2.97h10.75c-0.26-1.69-0.53-3.35-2.03-4.96
		c-1.43-1.54-3.5-2.33-5.6-2.33c-4.89,0-8.31,3.57-8.31,8.27c0,4.55,3.27,8.34,8.61,8.34c4.55,0,6.28-3.12,7.14-4.77l-0.94-0.45
		C213.19,58.24,211.61,60.8,208.42,60.8"/>
	<path fill="#909498" d="M191.02,38.89c0,1.5,1.2,2.71,2.71,2.71c1.5,0,2.71-1.2,2.71-2.71c0-1.5-1.2-2.71-2.71-2.71
		C192.22,36.18,191.02,37.38,191.02,38.89"/>
	<path fill="#909498" d="M189.32,46.78h2.56v13.76h-2.56v0.98h9.66v-0.98h-2.4V45.46c-1.77,0.11-2.74,0.19-3.68,0.26
		c-0.98,0.04-1.88,0.08-3.57,0.08V46.78z"/>
	<path fill="#909498" d="M180.57,60.72c-1.43,0-2.82-1.24-3.53-2.63c-0.68-1.35-0.79-2.89-0.79-4.4c0-4.21,1.39-5.56,2.26-6.24
		c0.56-0.41,1.2-0.71,1.92-0.71c1.77,0,2.37,1.54,2.63,2.56c0.34,1.32,0.41,2.67,0.45,4.02C183.57,57.87,183.08,60.72,180.57,60.72
		 M181.32,45.35c-2.59,0-3.83,1.5-4.85,2.74l0.07-2.63c-2.41,0.34-2.78,0.34-7.29,0.34v1.01h2.44v24.66h-2.44v1.05h10.26v-1.05
		h-3.04V59.26c1.01,1.2,2.33,2.71,5.07,2.71c3.16,0,4.77-1.92,5.49-2.86c1.47-1.99,1.65-3.8,1.65-5.19
		C188.69,47.8,184.51,45.35,181.32,45.35"/>
	<path fill="#909498" d="M160.5,61.18c-1.65,0-2.67-0.98-3.12-1.88c-0.3-0.53-0.68-1.32-0.68-5.79c0-3.31,0.08-7.22,3.76-7.22
		c1.5,0,2.63,0.71,3.23,2.07c0.23,0.49,0.45,1.02,0.49,5C164.22,57.04,164.22,61.18,160.5,61.18 M169.29,53.32
		c-0.38-5.94-5.38-7.97-8.8-7.97c-3.83,0-9.02,2.4-9.02,8.23c0,4.21,3.08,8.34,9.13,8.34c5.45,0,7.71-3.65,8.23-5.11
		C169.25,55.73,169.37,54.49,169.29,53.32"/>
	<path fill="#909498" d="M143.24,48.7c0.38-0.6,0.71-1.2,1.16-1.69c0.87-1.02,1.95-1.65,3.5-1.65c2.33,0,3.31,1.65,3.31,3.12
		c0,1.05-0.6,2.56-2.52,2.56c-1.54,0-2.4-1.13-2.4-2.22c0-0.68,0.26-1.09,0.49-1.39c0.08-0.15,0.19-0.26,0.19-0.38
		c0-0.19-0.26-0.38-0.53-0.38c-0.53,0-1.73,1.54-1.73,1.54c-1.2,1.65-1.5,3.68-1.5,5.19v7.14h3.12v0.98h-10.41v-0.98h2.56V46.78
		h-2.56V45.8c2.48,0,4.96-0.08,7.4-0.34L143.24,48.7z"/>
	<path fill="#909498" d="M122.8,48.55c0.86-1.05,2.67-3.19,6.24-3.19c2.26,0,3.42,0.79,3.95,1.39c1.05,1.2,1.01,2.48,1.01,3.72
		v10.07h2.48v0.98h-9.21v-0.98h2.07v-9.92c0.04-1.92-0.15-3.61-2.22-3.61c-0.83,0-1.58,0.26-2.14,0.68
		c-2.14,1.47-2.18,3.87-2.22,6.01v6.84h2.29v0.98h-9.58v-0.98h2.71V36.14h-2.71v-1.01c1.01,0,2.29,0,3.83-0.08
		c2.1-0.11,2.86-0.23,3.5-0.3V48.55z"/>
	<path fill="#909498" d="M111.52,45.8h3.27v0.98h-3.27v10.9c0,0.9,0.04,2.29,1.32,2.29c1.13,0,1.73-1.24,2.18-2.74l1.05,0.23
		c-0.53,1.8-1.43,4.51-5.34,4.51c-3.8,0-3.83-2.78-3.83-4.44l0.08-10.75h-2.71v-0.6c1.69-0.79,4.02-1.95,6.2-6.69h1.05V45.8z"/>
	<path fill="#909498" d="M91.71,48.25c0.83-0.98,1.47-1.69,3.01-2.33c1.13-0.45,2.11-0.56,2.86-0.56c0.26,0,1.13,0,2.14,0.3
		c3.04,0.87,3.04,3.19,3.04,4.85v10.04h2.48v0.98h-9.25v-0.98h2.11v-9.32c0-2.11,0-4.13-2.29-4.13c-1.32,0-3.42,1.28-3.95,3.42
		c-0.15,0.64-0.15,1.32-0.15,3.04v6.99h2.41v0.98h-9.66v-0.98h2.56V46.78h-2.56V45.8c2.29,0,4.47-0.23,7.25-0.34V48.25z"/>
	<path fill="#909498" d="M75.96,59.15c-0.45,0.34-1.01,0.6-1.65,0.6c-1.32,0-2.56-1.01-2.56-2.89c0-3.35,3.27-3.53,5.26-3.65v2.89
		C77.01,57.08,77.05,58.24,75.96,59.15 M83.55,59.22c-0.3,0.23-0.68,0.56-1.13,0.56c-0.9,0-0.94-1.09-0.94-1.95v-7.55
		c0-1.32,0.04-3.16-2.52-4.25c-1.09-0.45-2.41-0.68-3.76-0.68c-3.65,0-6.58,1.69-6.58,4.1c0,1.2,0.86,2.07,2.1,2.07
		c1.28,0,2.14-0.98,2.14-2.1c0-0.26-0.08-0.53-0.19-0.75c-0.11-0.3-0.34-0.53-0.45-0.83c-0.08-0.15-0.11-0.26-0.11-0.41
		c0-0.34,0.56-1.09,2.26-1.09c2.52,0,2.63,1.28,2.63,2.86v2.97c-2.33,0.23-5.41,0.49-7.52,2.03c-1.65,1.2-2.18,2.74-2.18,3.95
		c0,1.17,0.56,3.8,4.44,3.8c2.93,0,4.51-1.73,5.26-2.59c0.49,0.98,1.32,2.59,3.46,2.59c1.84,0,3.01-1.17,3.68-1.88L83.55,59.22z"/>
	<path fill="#909498" d="M63.89,60.54h2.48v0.98h-9.85v-0.98h2.63V36.22h-2.63v-1.05c0.71,0,1.95,0,3.31-0.04
		c1.35-0.04,2.86-0.15,4.06-0.38V60.54z"/>
	<path fill="#909498" d="M47.87,38.89c0,1.5,1.2,2.71,2.71,2.71c1.5,0,2.71-1.2,2.71-2.71c0-1.5-1.2-2.71-2.71-2.71
		C49.07,36.18,47.87,37.38,47.87,38.89"/>
	<path fill="#909498" d="M46.18,46.78h2.56v13.76h-2.56v0.98h9.66v-0.98h-2.41V45.46c-1.77,0.11-2.74,0.19-3.68,0.26
		c-0.98,0.04-1.88,0.08-3.57,0.08V46.78z"/>
	<path fill="#909498" d="M31.8,48.55c0.86-1.05,2.67-3.19,6.24-3.19c2.25,0,3.42,0.79,3.95,1.39c1.05,1.2,1.01,2.48,1.01,3.72v10.07
		h2.48v0.98h-9.21v-0.98h2.07v-9.92c0.04-1.92-0.15-3.61-2.22-3.61c-0.83,0-1.58,0.26-2.14,0.68c-2.14,1.47-2.18,3.87-2.22,6.01
		v6.84h2.29v0.98h-9.59v-0.98h2.71V36.14h-2.71v-1.01c1.02,0,2.29,0,3.83-0.08c2.1-0.11,2.86-0.23,3.5-0.3V48.55z"/>
	<path fill="#909498" d="M17.1,47.04c-1.05,0.79-2.59,0.98-3.23,0.98h-3.46V35.96h3.35c1.2,0,2.86,0.08,3.95,1.54
		c0.71,0.98,0.9,2.48,0.9,4.55C18.61,45.28,17.67,46.63,17.1,47.04 M21.91,36.59c-2.03-1.5-4.47-1.54-6.54-1.62H1.66v0.98h3.19
		v24.58H1.66v0.98h12.29v-0.98h-3.53V49.11h5.11c1.99,0,4.47-0.19,6.43-1.62c2.48-1.8,2.59-4.36,2.59-5.3
		C24.55,40.05,23.64,37.91,21.91,36.59"/>
	<path fill="#909498" d="M164.13,23.29c-2.48,0-2.59-2.03-2.59-5c0-2.67,0-4.92,2.56-4.92c0.34,0,1.5,0,2.1,1.24
		c0.38,0.83,0.38,1.65,0.38,3.83C166.57,21.11,166.57,23.29,164.13,23.29 M168.41,31.78c0.79,0,2.67-0.04,2.67,2.07
		c0,2.33-2.67,4.36-7.14,4.36c-4.14,0-5.56-2.14-5.56-3.83c0-1.24,0.6-1.88,1.28-2.59H168.41z M170.78,14.83
		c0.19,0,0.23,0,0.53,0.38c0.23,0.3,0.64,0.49,1.09,0.49c1.09,0,1.62-0.83,1.62-1.69c0-1.09-0.83-1.73-1.77-1.73
		c-0.49,0-1.05,0.19-1.5,0.53c-0.71,0.53-0.9,1.24-1.09,1.8c-1.05-0.9-2.48-2.14-5.41-2.14c-3.42,0-7.25,1.92-7.25,6.01
		c0,2.52,1.58,3.76,2.56,4.55c-0.9,0.3-3.83,1.35-3.83,4.77c0,0.56,0.08,1.62,1.01,2.59c0.71,0.79,1.28,0.94,2.07,1.09
		c-1.05,0.38-3.04,1.05-3.04,3.16c0,2.33,2.78,4.77,8.19,4.77c5.15,0,8.98-2.56,8.98-7.1c0-1.17-0.19-2.14-0.94-3.2
		c-1.35-1.95-2.74-1.92-5.45-1.92h-6.46c-1.24,0-2.33-0.04-2.33-1.24c0-1.2,1.47-1.99,2.63-2.44c0.79,0.38,1.8,0.86,3.83,0.86
		c3.8,0,6.99-2.07,6.99-6.09c0-1.28-0.41-1.99-0.83-2.74C170.48,15.02,170.59,14.83,170.78,14.83"/>
	<path fill="#909498" d="M148.04,15.81c0.38-0.6,0.71-1.2,1.16-1.69c0.86-1.02,1.95-1.65,3.5-1.65c2.33,0,3.31,1.65,3.31,3.12
		c0,1.05-0.6,2.56-2.52,2.56c-1.54,0-2.41-1.13-2.41-2.22c0-0.68,0.26-1.09,0.49-1.39c0.08-0.15,0.19-0.26,0.19-0.38
		c0-0.19-0.26-0.38-0.53-0.38c-0.53,0-1.73,1.54-1.73,1.54c-1.2,1.65-1.5,3.68-1.5,5.19v7.14h3.12v0.98h-10.41v-0.98h2.56V13.89
		h-2.56v-0.98c2.48,0,4.96-0.08,7.4-0.34L148.04,15.81z"/>
	<path fill="#909498" d="M129.77,16.64c0.15-1.5,0.38-3.31,3.01-3.31c2.44,0,2.56,1.84,2.67,3.16v2.18h-5.71L129.77,16.64z
		 M133.57,27.91c-3.76,0-3.87-3.76-3.91-5.19c-0.04-1.02,0-1.99,0-2.97h10.75c-0.26-1.69-0.53-3.35-2.03-4.96
		c-1.43-1.54-3.5-2.33-5.6-2.33c-4.89,0-8.31,3.57-8.31,8.27c0,4.55,3.27,8.34,8.61,8.34c4.55,0,6.28-3.12,7.14-4.77l-0.94-0.45
		C138.34,25.36,136.76,27.91,133.57,27.91"/>
	<path fill="#909498" d="M114.82,27.84c-1.35,0-2.82-0.79-3.72-2.22c-0.94-1.47-1.13-3.53-1.13-4.81c0-1.01,0.15-3.08,0.98-4.59
		c0.79-1.43,2.4-2.59,3.87-2.59c2.33,0,2.71,2.14,2.86,2.89c0.19,1.05,0.26,2.78,0.26,3.87C117.93,24.57,117.82,27.84,114.82,27.84
		 M115.57,12.46c-2.89,0-4.28,1.5-5.41,2.74V1.87c-1.58,0.26-3.31,0.38-4.06,0.41h-3.27v1.05h2.63v24.32h-2.63v0.98h7.29v-2.37
		c0.98,1.2,2.56,2.78,5.53,2.78c2.14,0,4.06-0.64,5.68-2.74c1.69-2.14,1.8-4.25,1.8-5.34C123.12,14.87,118.95,12.46,115.57,12.46"/>
	<path fill="#909498" d="M79.97,15.32c1.09-1.28,2.48-2.89,5.41-2.89c3.38,0,4.32,1.65,5.19,3.27c0.56-0.94,1.99-3.23,5.64-3.23
		c4.96,0,5,3.31,5.11,5.34v9.85h2.33v0.98h-9.06v-0.98h2.07v-9.73c0-1.92,0-3.76-2.14-3.76c-0.83,0-1.73,0.41-2.48,1.13
		c-1.39,1.35-1.47,3.04-1.47,5.04v7.33h2.26v0.98h-8.83v-0.98h2.03V18.1c0-2.14-0.23-3.91-2.26-3.91c-1.13,0-2.1,0.6-2.74,1.35
		c-0.9,1.13-0.98,2.37-1.09,4.13v7.97h2.33v0.98h-9.47v-0.98h2.48V13.89h-2.48v-0.98c4.28,0,5.07-0.08,7.18-0.34V15.32z"/>
	<path fill="#909498" d="M63.66,28.29c-1.65,0-2.67-0.98-3.12-1.88c-0.3-0.53-0.68-1.32-0.68-5.79c0-3.31,0.08-7.22,3.76-7.22
		c1.5,0,2.63,0.71,3.23,2.07c0.23,0.49,0.45,1.01,0.49,5C67.38,24.15,67.38,28.29,63.66,28.29 M72.46,20.43
		c-0.38-5.94-5.37-7.97-8.79-7.97c-3.83,0-9.02,2.41-9.02,8.23c0,4.21,3.08,8.34,9.13,8.34c5.45,0,7.71-3.65,8.23-5.11
		C72.42,22.84,72.53,21.6,72.46,20.43"/>
	<path fill="#909498" d="M44.47,28.29c-1.65,0-2.67-0.98-3.12-1.88c-0.3-0.53-0.68-1.32-0.68-5.79c0-3.31,0.08-7.22,3.76-7.22
		c1.5,0,2.63,0.71,3.23,2.07c0.23,0.49,0.45,1.01,0.49,5C48.19,24.15,48.19,28.29,44.47,28.29 M53.26,20.43
		c-0.38-5.94-5.37-7.97-8.79-7.97c-3.83,0-9.02,2.41-9.02,8.23c0,4.21,3.08,8.34,9.13,8.34c5.45,0,7.71-3.65,8.23-5.11
		C53.22,22.84,53.34,21.6,53.26,20.43"/>
	<path fill="#909498" d="M32.55,27.65h2.48v0.98h-9.85v-0.98h2.63V3.33h-2.63V2.28c0.71,0,1.95,0,3.31-0.04
		c1.35-0.04,2.86-0.15,4.06-0.38V27.65z"/>
	<path fill="#909498" d="M18.01,25.85c-1.01,1.65-2.52,1.8-3.76,1.8h-3.76V15.36h3.5c1.09,0,2.67,0.11,3.76,1.47
		c0.9,1.09,1.05,2.86,1.05,4.77C18.8,23.21,18.68,24.72,18.01,25.85 M10.49,3.14h2.93c3.08,0,4.66,0.75,4.66,5.71
		c0,4.4-1.58,5.45-4.51,5.45h-3.08V3.14z M19.55,15.21c-0.9-0.23-1.84-0.34-2.82-0.45c0.86-0.11,1.73-0.26,2.56-0.49
		c2.59-0.79,4.4-2.71,4.4-5.6c0-1.92-0.68-3.91-3.04-5.3c-2.07-1.16-4.47-1.24-6.65-1.28H1.73v0.98h3.19v24.58H1.73v0.98h11.73
		c3.95-0.04,8.68-0.04,10.71-3.83c0.6-1.13,0.75-2.29,0.75-3.19C24.92,17.76,22.14,15.89,19.55,15.21"/>
</g>
</svg>
